<svg version="1.1" xmlns="http://www.w3.org/2000/svg" xmlns:xlink="http://www.w3.org/1999/xlink" width="2104" height="1028"><defs/><g><g><rect fill="#C0C0C0" stroke="none" x="287" y="87" width="1728" height="1008" transform="matrix(1 0 0 1 -142 -70)" fill-opacity="0.2"/></g><g><rect fill="#ffffff" stroke="none" x="280" y="80" width="1728" height="1008" transform="matrix(1 0 0 1 -142 -70)"/></g><g><path fill="none" stroke="#000000" paint-order="fill stroke markers" d=" M 138 10 L 1866 10 L 1866 1018 L 138 1018 L 138 10 Z Z" stroke-miterlimit="10" stroke-dasharray=""/></g><g><g><path fill="none" stroke="none"/><text fill="#000000" stroke="none" font-family="Arial" font-size="13px" font-style="normal" font-weight="bold" text-decoration="undefined" x="1144.5" y="93.5" text-anchor="middle" dominant-baseline="central" transform="matrix(1 0 0 1 -142 -70)">Memory</text></g></g><g><path fill="#ffffff" stroke="none" paint-order="stroke fill markers" d=" M 37.30254545454545 559.9300000000001 C 37.30254545454545 552.7889575360001 42.98738885585453 547 50 547 C 57.01261114414547 547 62.69745454545455 552.7889575360001 62.69745454545455 559.9300000000001 C 62.69745454545455 567.071042464 57.01261114414547 572.86 50 572.86 C 42.98738885585453 572.86 37.30254545454545 567.071042464 37.30254545454545 559.9300000000001 Z"/></g><g><path fill="none" stroke="#000000" paint-order="fill stroke markers" d=" M 37.30254545454545 559.9300000000001 C 37.30254545454545 552.7889575360001 42.98738885585453 547 50 547 C 57.01261114414547 547 62.69745454545455 552.7889575360001 62.69745454545455 559.9300000000001 C 62.69745454545455 567.071042464 57.01261114414547 572.86 50 572.86 C 42.98738885585453 572.86 37.30254545454545 567.071042464 37.30254545454545 559.9300000000001 Z" stroke-miterlimit="10" stroke-dasharray=""/></g><g><path fill="none" stroke="#000000" paint-order="fill stroke markers" d=" M 50 572.86 L 50 598.14" stroke-miterlimit="10" stroke-dasharray=""/></g><g><path fill="none" stroke="#000000" paint-order="fill stroke markers" d=" M 36.55563636363635 582.34 L 63.44436363636365 582.34" stroke-miterlimit="10" stroke-dasharray=""/></g><g><path fill="none" stroke="#000000" paint-order="fill stroke markers" d=" M 50 598.14 L 31.327272727272714 624" stroke-miterlimit="10" stroke-dasharray=""/></g><g><path fill="none" stroke="#000000" paint-order="fill stroke markers" d=" M 50 598.14 L 68.67272727272729 624" stroke-miterlimit="10" stroke-dasharray=""/></g><g><g><path fill="none" stroke="none"/><text fill="#000000" stroke="none" font-family="Arial" font-size="13px" font-style="normal" font-weight="bold" text-decoration="undefined" x="192.5" y="708.5" text-anchor="middle" dominant-baseline="central" transform="matrix(1 0 0 1 -142 -70)">Joueur</text></g></g><g><path fill="#C0C0C0" stroke="none" paint-order="stroke fill markers" d=" M 200 357 C 200 341.5360256 262.68012799999997 329 340 329 C 417.31987200000003 329 480 341.5360256 480 357 C 480 372.4639744 417.31987200000003 385 340 385 C 262.68012799999997 385 200 372.4639744 200 357 Z" fill-opacity="0.2"/></g><g><path fill="#ffffff" stroke="none" paint-order="stroke fill markers" d=" M 193 350 C 193 334.5360256 255.68012799999997 322 333 322 C 410.31987200000003 322 473 334.5360256 473 350 C 473 365.4639744 410.31987200000003 378 333 378 C 255.68012799999997 378 193 365.4639744 193 350 Z"/></g><g><path fill="none" stroke="#000000" paint-order="fill stroke markers" d=" M 193 350 C 193 334.5360256 255.68012799999997 322 333 322 C 410.31987200000003 322 473 334.5360256 473 350 C 473 365.4639744 410.31987200000003 378 333 378 C 255.68012799999997 378 193 365.4639744 193 350 Z" stroke-miterlimit="10" stroke-dasharray=""/></g><g><g><path fill="none" stroke="none"/><text fill="#000000" stroke="none" font-family="Arial" font-size="13px" font-style="normal" font-weight="bold" text-decoration="undefined" x="475" y="421" text-anchor="middle" dominant-baseline="central" transform="matrix(1 0 0 1 -142 -70)">Demarrer une nouvelle partie</text></g></g><g><path fill="none" stroke="#000000" paint-order="fill stroke markers" d=" M 91 562 L 300 379" stroke-miterlimit="10" stroke-dasharray=""/></g><g><path fill="#C0C0C0" stroke="none" paint-order="stroke fill markers" d=" M 841 522.5 C 841 512.835016 890.2486719999999 505 951 505 C 1011.7513280000001 505 1061 512.835016 1061 522.5 C 1061 532.164984 1011.7513280000001 540 951 540 C 890.2486719999999 540 841 532.164984 841 522.5 Z" fill-opacity="0.2"/></g><g><path fill="#ffffff" stroke="none" paint-order="stroke fill markers" d=" M 834 515.5 C 834 505.835016 883.2486719999999 498 944 498 C 1004.7513280000001 498 1054 505.835016 1054 515.5 C 1054 525.164984 1004.7513280000001 533 944 533 C 883.2486719999999 533 834 525.164984 834 515.5 Z"/></g><g><path fill="none" stroke="#000000" paint-order="fill stroke markers" d=" M 834 515.5 C 834 505.835016 883.2486719999999 498 944 498 C 1004.7513280000001 498 1054 505.835016 1054 515.5 C 1054 525.164984 1004.7513280000001 533 944 533 C 883.2486719999999 533 834 525.164984 834 515.5 Z" stroke-miterlimit="10" stroke-dasharray=""/></g><g><g><path fill="none" stroke="none"/><text fill="#000000" stroke="none" font-family="Arial" font-size="13px" font-style="normal" font-weight="bold" text-decoration="undefined" x="1086" y="586.5" text-anchor="middle" dominant-baseline="central" transform="matrix(1 0 0 1 -142 -70)">Selectionner 2 Joueurs</text></g></g><g><path fill="#C0C0C0" stroke="none" paint-order="stroke fill markers" d=" M 1121 522.5 C 1121 512.835016 1168.4578112 505 1227 505 C 1285.5421888 505 1333 512.835016 1333 522.5 C 1333 532.164984 1285.5421888 540 1227 540 C 1168.4578112 540 1121 532.164984 1121 522.5 Z" fill-opacity="0.2"/></g><g><path fill="#ffffff" stroke="none" paint-order="stroke fill markers" d=" M 1114 515.5 C 1114 505.835016 1161.4578112 498 1220 498 C 1278.5421888 498 1326 505.835016 1326 515.5 C 1326 525.164984 1278.5421888 533 1220 533 C 1161.4578112 533 1114 525.164984 1114 515.5 Z"/></g><g><path fill="none" stroke="#000000" paint-order="fill stroke markers" d=" M 1114 515.5 C 1114 505.835016 1161.4578112 498 1220 498 C 1278.5421888 498 1326 505.835016 1326 515.5 C 1326 525.164984 1278.5421888 533 1220 533 C 1161.4578112 533 1114 525.164984 1114 515.5 Z" stroke-miterlimit="10" stroke-dasharray=""/></g><g><g><path fill="none" stroke="none"/><text fill="#000000" stroke="none" font-family="Arial" font-size="13px" font-style="normal" font-weight="bold" text-decoration="undefined" x="1362" y="586.5" text-anchor="middle" dominant-baseline="central" transform="matrix(1 0 0 1 -142 -70)">Selectionner 1 Joueur</text></g></g><g><path fill="#C0C0C0" stroke="none" paint-order="stroke fill markers" d=" M 713 250.5 C 713 240.835016 755.532944 233 808 233 C 860.467056 233 903 240.835016 903 250.5 C 903 260.164984 860.467056 268 808 268 C 755.532944 268 713 260.164984 713 250.5 Z" fill-opacity="0.2"/></g><g><path fill="#ffffff" stroke="none" paint-order="stroke fill markers" d=" M 706 243.5 C 706 233.835016 748.532944 226 801 226 C 853.467056 226 896 233.835016 896 243.5 C 896 253.164984 853.467056 261 801 261 C 748.532944 261 706 253.164984 706 243.5 Z"/></g><g><path fill="none" stroke="#000000" paint-order="fill stroke markers" d=" M 706 243.5 C 706 233.835016 748.532944 226 801 226 C 853.467056 226 896 233.835016 896 243.5 C 896 253.164984 853.467056 261 801 261 C 748.532944 261 706 253.164984 706 243.5 Z" stroke-miterlimit="10" stroke-dasharray=""/></g><g><g><path fill="none" stroke="none"/><text fill="#000000" stroke="none" font-family="Arial" font-size="13px" font-style="normal" font-weight="bold" text-decoration="undefined" x="943" y="314.5" text-anchor="middle" dominant-baseline="central" transform="matrix(1 0 0 1 -142 -70)">Choisir un theme</text></g></g><g><path fill="#C0C0C0" stroke="none" paint-order="stroke fill markers" d=" M 689 186.5 C 689 176.835016 744.2928272 169 812.5 169 C 880.7071728 169 936 176.835016 936 186.5 C 936 196.164984 880.7071728 204 812.5 204 C 744.2928272 204 689 196.164984 689 186.5 Z" fill-opacity="0.2"/></g><g><path fill="#ffffff" stroke="none" paint-order="stroke fill markers" d=" M 682 179.5 C 682 169.835016 737.2928272 162 805.5 162 C 873.7071728 162 929 169.835016 929 179.5 C 929 189.164984 873.7071728 197 805.5 197 C 737.2928272 197 682 189.164984 682 179.5 Z"/></g><g><path fill="none" stroke="#000000" paint-order="fill stroke markers" d=" M 682 179.5 C 682 169.835016 737.2928272 162 805.5 162 C 873.7071728 162 929 169.835016 929 179.5 C 929 189.164984 873.7071728 197 805.5 197 C 737.2928272 197 682 189.164984 682 179.5 Z" stroke-miterlimit="10" stroke-dasharray=""/></g><g><g><path fill="none" stroke="none"/><text fill="#000000" stroke="none" font-family="Arial" font-size="13px" font-style="normal" font-weight="bold" text-decoration="undefined" x="947.5" y="250.5" text-anchor="middle" dominant-baseline="central" transform="matrix(1 0 0 1 -142 -70)">Choisir une taille de grille</text></g></g><g><path fill="#C0C0C0" stroke="none" paint-order="stroke fill markers" d=" M 200 605 C 200 589.5360256 239.84665280000002 577 289 577 C 338.1533472 577 378 589.5360256 378 605 C 378 620.4639744 338.1533472 633 289 633 C 239.84665280000002 633 200 620.4639744 200 605 Z" fill-opacity="0.2"/></g><g><path fill="#ffffff" stroke="none" paint-order="stroke fill markers" d=" M 193 598 C 193 582.5360256 232.84665280000002 570 282 570 C 331.1533472 570 371 582.5360256 371 598 C 371 613.4639744 331.1533472 626 282 626 C 232.84665280000002 626 193 613.4639744 193 598 Z"/></g><g><path fill="none" stroke="#000000" paint-order="fill stroke markers" d=" M 193 598 C 193 582.5360256 232.84665280000002 570 282 570 C 331.1533472 570 371 582.5360256 371 598 C 371 613.4639744 331.1533472 626 282 626 C 232.84665280000002 626 193 613.4639744 193 598 Z" stroke-miterlimit="10" stroke-dasharray=""/></g><g><g><path fill="none" stroke="none"/><text fill="#000000" stroke="none" font-family="Arial" font-size="13px" font-style="normal" font-weight="bold" text-decoration="undefined" x="424" y="669" text-anchor="middle" dominant-baseline="central" transform="matrix(1 0 0 1 -142 -70)">Voir le classement</text></g></g><g><path fill="none" stroke="#000000" paint-order="fill stroke markers" d=" M 192 598 L 91 598" stroke-miterlimit="10" stroke-dasharray=""/></g><g><path fill="#C0C0C0" stroke="none" paint-order="stroke fill markers" d=" M 545 634.5 C 545 624.835016 588.8760896 617 643 617 C 697.1239104 617 741 624.835016 741 634.5 C 741 644.164984 697.1239104 652 643 652 C 588.8760896 652 545 644.164984 545 634.5 Z" fill-opacity="0.2"/></g><g><path fill="#ffffff" stroke="none" paint-order="stroke fill markers" d=" M 538 627.5 C 538 617.835016 581.8760896 610 636 610 C 690.1239104 610 734 617.835016 734 627.5 C 734 637.164984 690.1239104 645 636 645 C 581.8760896 645 538 637.164984 538 627.5 Z"/></g><g><path fill="none" stroke="#000000" paint-order="fill stroke markers" d=" M 538 627.5 C 538 617.835016 581.8760896 610 636 610 C 690.1239104 610 734 617.835016 734 627.5 C 734 637.164984 690.1239104 645 636 645 C 581.8760896 645 538 637.164984 538 627.5 Z" stroke-miterlimit="10" stroke-dasharray=""/></g><g><g><path fill="none" stroke="none"/><text fill="#000000" stroke="none" font-family="Arial" font-size="13px" font-style="normal" font-weight="bold" text-decoration="undefined" x="778" y="698.5" text-anchor="middle" dominant-baseline="central" transform="matrix(1 0 0 1 -142 -70)">Filtrer le classement</text></g></g><g><path fill="#C0C0C0" stroke="none" paint-order="stroke fill markers" d=" M 201 749 C 201 733.5360256 257.6359728 721 327.5 721 C 397.3640272 721 454 733.5360256 454 749 C 454 764.4639744 397.3640272 777 327.5 777 C 257.6359728 777 201 764.4639744 201 749 Z" fill-opacity="0.2"/></g><g><path fill="#ffffff" stroke="none" paint-order="stroke fill markers" d=" M 194 742 C 194 726.5360256 250.6359728 714 320.5 714 C 390.3640272 714 447 726.5360256 447 742 C 447 757.4639744 390.3640272 770 320.5 770 C 250.6359728 770 194 757.4639744 194 742 Z"/></g><g><path fill="none" stroke="#000000" paint-order="fill stroke markers" d=" M 194 742 C 194 726.5360256 250.6359728 714 320.5 714 C 390.3640272 714 447 726.5360256 447 742 C 447 757.4639744 390.3640272 770 320.5 770 C 250.6359728 770 194 757.4639744 194 742 Z" stroke-miterlimit="10" stroke-dasharray=""/></g><g><g><path fill="none" stroke="none"/><text fill="#000000" stroke="none" font-family="Arial" font-size="13px" font-style="normal" font-weight="bold" text-decoration="undefined" x="462.5" y="813" text-anchor="middle" dominant-baseline="central" transform="matrix(1 0 0 1 -142 -70)">Consulter les règles du jeu</text></g></g><g><path fill="none" stroke="#000000" paint-order="fill stroke markers" d=" M 91 620 L 266 713" stroke-miterlimit="10" stroke-dasharray=""/></g><g><path fill="#ffffff" stroke="none" paint-order="stroke fill markers" d=" M 2010.8025454545455 567.9300000000001 C 2010.8025454545455 560.7889575360001 2016.4873888558545 555 2023.5 555 C 2030.5126111441455 555 2036.1974545454545 560.7889575360001 2036.1974545454545 567.9300000000001 C 2036.1974545454545 575.071042464 2030.5126111441455 580.86 2023.5 580.86 C 2016.4873888558545 580.86 2010.8025454545455 575.071042464 2010.8025454545455 567.9300000000001 Z"/></g><g><path fill="none" stroke="#000000" paint-order="fill stroke markers" d=" M 2010.8025454545455 567.9300000000001 C 2010.8025454545455 560.7889575360001 2016.4873888558545 555 2023.5 555 C 2030.5126111441455 555 2036.1974545454545 560.7889575360001 2036.1974545454545 567.9300000000001 C 2036.1974545454545 575.071042464 2030.5126111441455 580.86 2023.5 580.86 C 2016.4873888558545 580.86 2010.8025454545455 575.071042464 2010.8025454545455 567.9300000000001 Z" stroke-miterlimit="10" stroke-dasharray=""/></g><g><path fill="none" stroke="#000000" paint-order="fill stroke markers" d=" M 2023.5 580.86 L 2023.5 606.14" stroke-miterlimit="10" stroke-dasharray=""/></g><g><path fill="none" stroke="#000000" paint-order="fill stroke markers" d=" M 2010.055636363636 590.34 L 2036.944363636364 590.34" stroke-miterlimit="10" stroke-dasharray=""/></g><g><path fill="none" stroke="#000000" paint-order="fill stroke markers" d=" M 2023.5 606.14 L 2004.8272727272724 632" stroke-miterlimit="10" stroke-dasharray=""/></g><g><path fill="none" stroke="#000000" paint-order="fill stroke markers" d=" M 2023.5 606.14 L 2042.1727272727276 632" stroke-miterlimit="10" stroke-dasharray=""/></g><g><g><path fill="none" stroke="none"/><text fill="#000000" stroke="none" font-family="Arial" font-size="13px" font-style="normal" font-weight="bold" text-decoration="undefined" x="2166" y="716.5" text-anchor="middle" dominant-baseline="central" transform="matrix(1 0 0 1 -142 -70)">Source des données</text></g></g><g><path fill="#C0C0C0" stroke="none" paint-order="stroke fill markers" d=" M 1237 349 C 1237 329.1177472 1329.900904 313 1444.5 313 C 1559.099096 313 1652 329.1177472 1652 349 C 1652 368.8822528 1559.099096 385 1444.5 385 C 1329.900904 385 1237 368.8822528 1237 349 Z" fill-opacity="0.2"/></g><g><path fill="#ffffff" stroke="none" paint-order="stroke fill markers" d=" M 1230 342 C 1230 322.1177472 1322.900904 306 1437.5 306 C 1552.099096 306 1645 322.1177472 1645 342 C 1645 361.8822528 1552.099096 378 1437.5 378 C 1322.900904 378 1230 361.8822528 1230 342 Z"/></g><g><path fill="none" stroke="#000000" paint-order="fill stroke markers" d=" M 1230 342 C 1230 322.1177472 1322.900904 306 1437.5 306 C 1552.099096 306 1645 322.1177472 1645 342 C 1645 361.8822528 1552.099096 378 1437.5 378 C 1322.900904 378 1230 361.8822528 1230 342 Z" stroke-miterlimit="10" stroke-dasharray=""/></g><g><g><path fill="none" stroke="none"/><text fill="#000000" stroke="none" font-family="Arial" font-size="13px" font-style="normal" font-weight="bold" text-decoration="undefined" x="1579.5" y="413" text-anchor="middle" dominant-baseline="central" transform="matrix(1 0 0 1 -142 -70)">Enregistrer du score final dans le classement</text></g></g><g><path fill="none" stroke="#000000" paint-order="fill stroke markers" d=" M 1519 379 L 1953 574" stroke-miterlimit="10" stroke-dasharray=""/></g><g><path fill="#C0C0C0" stroke="none" paint-order="stroke fill markers" d=" M 1435 573 C 1435 557.5360256 1483.5770992 545 1543.5 545 C 1603.4229008 545 1652 557.5360256 1652 573 C 1652 588.4639744 1603.4229008 601 1543.5 601 C 1483.5770992 601 1435 588.4639744 1435 573 Z" fill-opacity="0.2"/></g><g><path fill="#ffffff" stroke="none" paint-order="stroke fill markers" d=" M 1428 566 C 1428 550.5360256 1476.5770992 538 1536.5 538 C 1596.4229008 538 1645 550.5360256 1645 566 C 1645 581.4639744 1596.4229008 594 1536.5 594 C 1476.5770992 594 1428 581.4639744 1428 566 Z"/></g><g><path fill="none" stroke="#000000" paint-order="fill stroke markers" d=" M 1428 566 C 1428 550.5360256 1476.5770992 538 1536.5 538 C 1596.4229008 538 1645 550.5360256 1645 566 C 1645 581.4639744 1596.4229008 594 1536.5 594 C 1476.5770992 594 1428 581.4639744 1428 566 Z" stroke-miterlimit="10" stroke-dasharray=""/></g><g><g><path fill="none" stroke="none"/><text fill="#000000" stroke="none" font-family="Arial" font-size="13px" font-style="normal" font-weight="bold" text-decoration="undefined" x="1678.5" y="637" text-anchor="middle" dominant-baseline="central" transform="matrix(1 0 0 1 -142 -70)">Charger le classement</text></g></g><g><path fill="none" stroke="#000000" paint-order="fill stroke markers" d=" M 413 321 L 753 198" stroke-miterlimit="10" stroke-dasharray="3"/></g><g><path fill="none" stroke="#000000" paint-order="fill stroke markers" d=" M 744.8754813997505 205.41567242495245 L 753 198 L 742.0114255451454 197.49877006262932" stroke-miterlimit="10" stroke-dasharray=""/></g><g><rect fill="#ffffff" stroke="none" x="696" y="284" width="63.0068359375" height="13" transform="matrix(1 0 0 1 -142 -70)"/></g><g><g><path fill="none" stroke="none"/><text fill="#000000" stroke="none" font-family="Arial" font-size="13px" font-style="normal" font-weight="normal" text-decoration="undefined" x="727.50341796875" y="290.5" text-anchor="middle" dominant-baseline="central" transform="matrix(1 0 0 1 -142 -70)">«include»</text></g></g><g><path fill="none" stroke="#000000" paint-order="fill stroke markers" d=" M 1646 575 L 1953 600" stroke-miterlimit="10" stroke-dasharray=""/></g><g><path fill="#C0C0C0" stroke="none" paint-order="stroke fill markers" d=" M 529 433 C 529 419.7451648 590.3369824 409 666 409 C 741.6630176 409 803 419.7451648 803 433 C 803 446.2548352 741.6630176 457 666 457 C 590.3369824 457 529 446.2548352 529 433 Z" fill-opacity="0.2"/></g><g><path fill="#ffffff" stroke="none" paint-order="stroke fill markers" d=" M 522 426 C 522 412.7451648 583.3369824 402 659 402 C 734.6630176 402 796 412.7451648 796 426 C 796 439.2548352 734.6630176 450 659 450 C 583.3369824 450 522 439.2548352 522 426 Z"/></g><g><path fill="none" stroke="#000000" paint-order="fill stroke markers" d=" M 522 426 C 522 412.7451648 583.3369824 402 659 402 C 734.6630176 402 796 412.7451648 796 426 C 796 439.2548352 734.6630176 450 659 450 C 583.3369824 450 522 439.2548352 522 426 Z" stroke-miterlimit="10" stroke-dasharray=""/></g><g><g><path fill="none" stroke="none"/><text fill="#000000" stroke="none" font-family="Arial" font-size="13px" font-style="normal" font-weight="bold" text-decoration="undefined" x="801" y="497" text-anchor="middle" dominant-baseline="central" transform="matrix(1 0 0 1 -142 -70)">Choisir le nombre de joueurs</text></g></g><g><path fill="none" stroke="#000000" paint-order="fill stroke markers" d=" M 457 379 L 552 401" stroke-miterlimit="10" stroke-dasharray="3"/></g><g><path fill="none" stroke="#000000" paint-order="fill stroke markers" d=" M 541.1496359464941 402.8082035024812 L 552 401 L 543.0490410410534 394.6062269577929" stroke-miterlimit="10" stroke-dasharray=""/></g><g><rect fill="#ffffff" stroke="none" x="567" y="469" width="55.65625" height="13" transform="matrix(1 0 0 1 -142 -70)"/></g><g><g><path fill="none" stroke="none"/><text fill="#000000" stroke="none" font-family="Arial" font-size="13px" font-style="normal" font-weight="normal" text-decoration="undefined" x="594.828125" y="475.5" text-anchor="middle" dominant-baseline="central" transform="matrix(1 0 0 1 -142 -70)">«include»</text></g></g><g><path fill="none" stroke="#000000" paint-order="fill stroke markers" d=" M 1219 497 L 1218 474 L 778 474 L 721 451" stroke-miterlimit="10" stroke-dasharray=""/></g><g><path fill="#FFFFFF" stroke="none" paint-order="stroke fill markers" d=" M 742.9990747126864 450.79822838246764 L 721 451 L 736.6983689881782 466.41302083016194"/></g><g><path fill="none" stroke="#000000" paint-order="fill stroke markers" d=" M 742.9990747126864 450.79822838246764 L 721 451 L 736.6983689881782 466.41302083016194 L 742.9990747126864 450.79822838246764" stroke-miterlimit="10" stroke-dasharray=""/></g><g><path fill="none" stroke="#000000" paint-order="fill stroke markers" d=" M 460 321 L 718 262" stroke-miterlimit="10" stroke-dasharray="3"/></g><g><path fill="none" stroke="#000000" paint-order="fill stroke markers" d=" M 709.0314851672558 268.36912409165086 L 718 262 L 707.1546515091695 260.16195318001934" stroke-miterlimit="10" stroke-dasharray=""/></g><g><rect fill="#ffffff" stroke="none" x="677" y="375" width="55.65625" height="13" transform="matrix(1 0 0 1 -142 -70)"/></g><g><g><path fill="none" stroke="none"/><text fill="#000000" stroke="none" font-family="Arial" font-size="13px" font-style="normal" font-weight="normal" text-decoration="undefined" x="704.828125" y="381.5" text-anchor="middle" dominant-baseline="central" transform="matrix(1 0 0 1 -142 -70)">«include»</text></g></g><g><path fill="none" stroke="#000000" paint-order="fill stroke markers" d=" M 1229 344 L 474 349" stroke-miterlimit="10" stroke-dasharray="3"/></g><g><path fill="none" stroke="#000000" paint-order="fill stroke markers" d=" M 484.1345750193228 344.72327354420247 L 474 349 L 484.1903289987813 353.1421244424326" stroke-miterlimit="10" stroke-dasharray=""/></g><g><rect fill="#ffffff" stroke="none" x="959" y="424" width="53.49169921875" height="13" transform="matrix(1 0 0 1 -142 -70)"/></g><g><g><path fill="none" stroke="none"/><text fill="#000000" stroke="none" font-family="Arial" font-size="13px" font-style="normal" font-weight="normal" text-decoration="undefined" x="985.745849609375" y="430.5" text-anchor="middle" dominant-baseline="central" transform="matrix(1 0 0 1 -142 -70)">«extend»</text></g></g><g><path fill="none" stroke="#000000" paint-order="fill stroke markers" d=" M 537 619 L 372 605" stroke-miterlimit="10" stroke-dasharray="3"/></g><g><path fill="none" stroke="#000000" paint-order="fill stroke markers" d=" M 382.4821817244797 601.6647539378656 L 372 605 L 381.7703968864703 610.0536466715483" stroke-miterlimit="10" stroke-dasharray=""/></g><g><rect fill="#ffffff" stroke="none" x="568" y="691" width="53.49169921875" height="13" transform="matrix(1 0 0 1 -142 -70)"/></g><g><g><path fill="none" stroke="none"/><text fill="#000000" stroke="none" font-family="Arial" font-size="13px" font-style="normal" font-weight="normal" text-decoration="undefined" x="594.745849609375" y="697.5" text-anchor="middle" dominant-baseline="central" transform="matrix(1 0 0 1 -142 -70)">«extend»</text></g></g><g><path fill="none" stroke="#000000" paint-order="fill stroke markers" d=" M 941 497 L 938 474 L 778 474 L 721 451" stroke-miterlimit="10" stroke-dasharray=""/></g><g><path fill="#FFFFFF" stroke="none" paint-order="stroke fill markers" d=" M 742.9990747126864 450.79822838246764 L 721 451 L 736.6983689881782 466.41302083016194"/></g><g><path fill="none" stroke="#000000" paint-order="fill stroke markers" d=" M 742.9990747126864 450.79822838246764 L 721 451 L 736.6983689881782 466.41302083016194 L 742.9990747126864 450.79822838246764" stroke-miterlimit="10" stroke-dasharray=""/></g><g><path fill="none" stroke="#000000" paint-order="fill stroke markers" d=" M 372 596 L 1427 569" stroke-miterlimit="10" stroke-dasharray="3"/></g><g><path fill="none" stroke="#000000" paint-order="fill stroke markers" d=" M 1416.9483481119082 573.4681421553731 L 1427 569 L 1416.732955170434 565.0518624051736" stroke-miterlimit="10" stroke-dasharray=""/></g><g><rect fill="#ffffff" stroke="none" x="1013" y="666" width="55.65625" height="13" transform="matrix(1 0 0 1 -142 -70)"/></g><g><g><path fill="none" stroke="none"/><text fill="#000000" stroke="none" font-family="Arial" font-size="13px" font-style="normal" font-weight="normal" text-decoration="undefined" x="1040.828125" y="672.5" text-anchor="middle" dominant-baseline="central" transform="matrix(1 0 0 1 -142 -70)">«include»</text></g></g><g><path fill="#C0C0C0" stroke="none" paint-order="stroke fill markers" d=" M 897 429 C 897 413.5360256 955.4268336 401 1027.5 401 C 1099.5731664 401 1158 413.5360256 1158 429 C 1158 444.4639744 1099.5731664 457 1027.5 457 C 955.4268336 457 897 444.4639744 897 429 Z" fill-opacity="0.2"/></g><g><path fill="#ffffff" stroke="none" paint-order="stroke fill markers" d=" M 890 422 C 890 406.5360256 948.4268336 394 1020.5 394 C 1092.5731664 394 1151 406.5360256 1151 422 C 1151 437.4639744 1092.5731664 450 1020.5 450 C 948.4268336 450 890 437.4639744 890 422 Z"/></g><g><path fill="none" stroke="#000000" paint-order="fill stroke markers" d=" M 890 422 C 890 406.5360256 948.4268336 394 1020.5 394 C 1092.5731664 394 1151 406.5360256 1151 422 C 1151 437.4639744 1092.5731664 450 1020.5 450 C 948.4268336 450 890 437.4639744 890 422 Z" stroke-miterlimit="10" stroke-dasharray=""/></g><g><g><path fill="none" stroke="none"/><text fill="#000000" stroke="none" font-family="Arial" font-size="13px" font-style="normal" font-weight="bold" text-decoration="undefined" x="1162.5" y="493" text-anchor="middle" dominant-baseline="central" transform="matrix(1 0 0 1 -142 -70)">Entrer les noms des joueurs</text></g></g><g><path fill="none" stroke="#000000" paint-order="fill stroke markers" d=" M 797 424 L 889 423" stroke-miterlimit="10" stroke-dasharray="3"/></g><g><path fill="none" stroke="#000000" paint-order="fill stroke markers" d=" M 878.8836783613007 427.3197264383735 L 889 423 L 878.7921725111668 418.9011882260562" stroke-miterlimit="10" stroke-dasharray=""/></g><g><rect fill="#ffffff" stroke="none" x="958" y="471" width="55.65625" height="13" transform="matrix(1 0 0 1 -142 -70)"/></g><g><g><path fill="none" stroke="none"/><text fill="#000000" stroke="none" font-family="Arial" font-size="13px" font-style="normal" font-weight="normal" text-decoration="undefined" x="985.828125" y="477.5" text-anchor="middle" dominant-baseline="central" transform="matrix(1 0 0 1 -142 -70)">«include»</text></g></g><g><path fill="#C0C0C0" stroke="none" paint-order="stroke fill markers" d=" M 937 754.5 C 937 744.835016 971.9217856 737 1015 737 C 1058.0782144 737 1093 744.835016 1093 754.5 C 1093 764.164984 1058.0782144 772 1015 772 C 971.9217856 772 937 764.164984 937 754.5 Z" fill-opacity="0.2"/></g><g><path fill="#ffffff" stroke="none" paint-order="stroke fill markers" d=" M 930 747.5 C 930 737.835016 964.9217856 730 1008 730 C 1051.0782144 730 1086 737.835016 1086 747.5 C 1086 757.164984 1051.0782144 765 1008 765 C 964.9217856 765 930 757.164984 930 747.5 Z"/></g><g><path fill="none" stroke="#000000" paint-order="fill stroke markers" d=" M 930 747.5 C 930 737.835016 964.9217856 730 1008 730 C 1051.0782144 730 1086 737.835016 1086 747.5 C 1086 757.164984 1051.0782144 765 1008 765 C 964.9217856 765 930 757.164984 930 747.5 Z" stroke-miterlimit="10" stroke-dasharray=""/></g><g><g><path fill="none" stroke="none"/><text fill="#000000" stroke="none" font-family="Arial" font-size="13px" font-style="normal" font-weight="bold" text-decoration="undefined" x="1150" y="818.5" text-anchor="middle" dominant-baseline="central" transform="matrix(1 0 0 1 -142 -70)">Filtrer par score</text></g></g><g><path fill="#C0C0C0" stroke="none" paint-order="stroke fill markers" d=" M 1121 758.5 C 1121 746.6258768 1154.1309248 737 1195 737 C 1235.8690752 737 1269 746.6258768 1269 758.5 C 1269 770.3741232 1235.8690752 780 1195 780 C 1154.1309248 780 1121 770.3741232 1121 758.5 Z" fill-opacity="0.2"/></g><g><path fill="#ffffff" stroke="none" paint-order="stroke fill markers" d=" M 1114 751.5 C 1114 739.6258768 1147.1309248 730 1188 730 C 1228.8690752 730 1262 739.6258768 1262 751.5 C 1262 763.3741232 1228.8690752 773 1188 773 C 1147.1309248 773 1114 763.3741232 1114 751.5 Z"/></g><g><path fill="none" stroke="#000000" paint-order="fill stroke markers" d=" M 1114 751.5 C 1114 739.6258768 1147.1309248 730 1188 730 C 1228.8690752 730 1262 739.6258768 1262 751.5 C 1262 763.3741232 1228.8690752 773 1188 773 C 1147.1309248 773 1114 763.3741232 1114 751.5 Z" stroke-miterlimit="10" stroke-dasharray=""/></g><g><g><path fill="none" stroke="none"/><text fill="#000000" stroke="none" font-family="Arial" font-size="13px" font-style="normal" font-weight="bold" text-decoration="undefined" x="1330" y="822.5" text-anchor="middle" dominant-baseline="central" transform="matrix(1 0 0 1 -142 -70)">Filtrer par nom</text></g></g><g><path fill="#C0C0C0" stroke="none" paint-order="stroke fill markers" d=" M 665 754.5 C 665 744.835016 717.3826784 737 782 737 C 846.6173216 737 899 744.835016 899 754.5 C 899 764.164984 846.6173216 772 782 772 C 717.3826784 772 665 764.164984 665 754.5 Z" fill-opacity="0.2"/></g><g><path fill="#ffffff" stroke="none" paint-order="stroke fill markers" d=" M 658 747.5 C 658 737.835016 710.3826784 730 775 730 C 839.6173216 730 892 737.835016 892 747.5 C 892 757.164984 839.6173216 765 775 765 C 710.3826784 765 658 757.164984 658 747.5 Z"/></g><g><path fill="none" stroke="#000000" paint-order="fill stroke markers" d=" M 658 747.5 C 658 737.835016 710.3826784 730 775 730 C 839.6173216 730 892 737.835016 892 747.5 C 892 757.164984 839.6173216 765 775 765 C 710.3826784 765 658 757.164984 658 747.5 Z" stroke-miterlimit="10" stroke-dasharray=""/></g><g><g><path fill="none" stroke="none"/><text fill="#000000" stroke="none" font-family="Arial" font-size="13px" font-style="normal" font-weight="bold" text-decoration="undefined" x="917" y="818.5" text-anchor="middle" dominant-baseline="central" transform="matrix(1 0 0 1 -142 -70)">Filtrer par taille de grille</text></g></g><g><path fill="none" stroke="#000000" paint-order="fill stroke markers" d=" M 776 729 L 778 698 L 634 698 L 635 646" stroke-miterlimit="10" stroke-dasharray=""/></g><g><path fill="#FFFFFF" stroke="none" paint-order="stroke fill markers" d=" M 643.0266793160764 666.4834669711178 L 635 646 L 626.1917209773195 666.1597177722955"/></g><g><path fill="none" stroke="#000000" paint-order="fill stroke markers" d=" M 643.0266793160764 666.4834669711178 L 635 646 L 626.1917209773195 666.1597177722955 L 643.0266793160764 666.4834669711178" stroke-miterlimit="10" stroke-dasharray=""/></g><g><path fill="none" stroke="#000000" paint-order="fill stroke markers" d=" M 1009 729 L 1010 698 L 634 698 L 635 646" stroke-miterlimit="10" stroke-dasharray=""/></g><g><path fill="#FFFFFF" stroke="none" paint-order="stroke fill markers" d=" M 643.0266793160764 666.4834669711178 L 635 646 L 626.1917209773195 666.1597177722955"/></g><g><path fill="none" stroke="#000000" paint-order="fill stroke markers" d=" M 643.0266793160764 666.4834669711178 L 635 646 L 626.1917209773195 666.1597177722955 L 643.0266793160764 666.4834669711178" stroke-miterlimit="10" stroke-dasharray=""/></g><g><path fill="none" stroke="#000000" paint-order="fill stroke markers" d=" M 1187 729 L 1186 698 L 634 698 L 635 646" stroke-miterlimit="10" stroke-dasharray=""/></g><g><path fill="#FFFFFF" stroke="none" paint-order="stroke fill markers" d=" M 643.0266793160764 666.4834669711178 L 635 646 L 626.1917209773195 666.1597177722955"/></g><g><path fill="none" stroke="#000000" paint-order="fill stroke markers" d=" M 643.0266793160764 666.4834669711178 L 635 646 L 626.1917209773195 666.1597177722955 L 643.0266793160764 666.4834669711178" stroke-miterlimit="10" stroke-dasharray=""/></g><g><path fill="#C0C0C0" stroke="none" paint-order="stroke fill markers" d=" M 200 941 C 200 925.5360256 261.3369824 913 337 913 C 412.6630176 913 474 925.5360256 474 941 C 474 956.4639744000001 412.6630176 969 337 969 C 261.3369824 969 200 956.4639744000001 200 941 Z" fill-opacity="0.2"/></g><g><path fill="#ffffff" stroke="none" paint-order="stroke fill markers" d=" M 193 934 C 193 918.5360256 254.3369824 906 330 906 C 405.6630176 906 467 918.5360256 467 934 C 467 949.4639744 405.6630176 962 330 962 C 254.3369824 962 193 949.4639744 193 934 Z"/></g><g><path fill="none" stroke="#000000" paint-order="fill stroke markers" d=" M 193 934 C 193 918.5360256 254.3369824 906 330 906 C 405.6630176 906 467 918.5360256 467 934 C 467 949.4639744 405.6630176 962 330 962 C 254.3369824 962 193 949.4639744 193 934 Z" stroke-miterlimit="10" stroke-dasharray=""/></g><g><g><path fill="none" stroke="none"/><text fill="#000000" stroke="none" font-family="Arial" font-size="13px" font-style="normal" font-weight="bold" text-decoration="undefined" x="472" y="1005" text-anchor="middle" dominant-baseline="central" transform="matrix(1 0 0 1 -142 -70)">Consulter la page des crédits</text></g></g><g><path fill="none" stroke="#000000" paint-order="fill stroke markers" d=" M 91 647 L 306 905" stroke-miterlimit="10" stroke-dasharray=""/></g></g></svg>